<svg width="20" height="20" viewBox="0 0 20 20" fill="none" xmlns="http://www.w3.org/2000/svg">
<path fill-rule="evenodd" clip-rule="evenodd" d="M19.3831 9.45998C19.4557 9.80071 19.4556 10.1614 19.383 10.5021C19.246 11.1446 18.8055 11.6049 18.274 12.004C17.753 12.3953 17.0241 12.8134 16.1292 13.3267L16.0871 13.3508C14.0939 14.4941 11.884 15.7539 10.3394 16.612C9.23499 17.2256 7.94265 17.8948 6.68937 18.5242L6.64479 18.5466C5.6617 19.0404 4.86385 19.4412 4.21566 19.6709C3.55757 19.9042 2.89789 20.0209 2.26619 19.7495C1.93474 19.6071 1.62948 19.3875 1.38908 19.1185C0.929479 18.6043 0.832368 17.9357 0.845437 17.2326C0.858352 16.5377 0.98623 15.6427 1.14409 14.5378L1.74102 10.3593C1.77218 10.1412 1.7792 10.0848 1.78072 10.0313C1.78131 10.0105 1.78131 9.98969 1.78072 9.96889C1.7792 9.91545 1.77218 9.85902 1.74102 9.64089L1.1146 5.25599C0.964721 4.20698 0.842424 3.35103 0.834064 2.68127C0.8255 1.99506 0.930891 1.34732 1.38764 0.838773C1.62646 0.572874 1.94018 0.348628 2.26906 0.208737C2.8946 -0.0573331 3.53333 0.0462731 4.17272 0.272025C4.7933 0.491132 5.54729 0.8756 6.46814 1.34515L6.51396 1.36851C7.63961 1.94245 8.92155 2.6148 10.3346 3.38558C12.4099 4.51756 14.4134 5.64907 16.1048 6.6199L16.1469 6.64411C17.036 7.1544 17.7608 7.57042 18.2792 7.96043C18.8086 8.3588 19.2465 8.81839 19.3831 9.45998ZM18.0138 10.2101C18.0454 10.0618 18.0454 9.89993 18.0138 9.75158C17.983 9.60708 17.8748 9.40818 17.4374 9.07913C16.9972 8.74787 16.3493 8.37451 15.4078 7.8341C13.7226 6.86681 11.7283 5.74049 9.66424 4.61463C8.26315 3.8504 6.99272 3.1841 5.87803 2.61574C4.90004 2.11709 4.22898 1.77659 3.70662 1.59216C3.19282 1.41075 2.96492 1.43414 2.81704 1.49704C2.6765 1.55682 2.53127 1.66063 2.42922 1.77425C2.32436 1.891 2.22694 2.10184 2.23396 2.6638C2.24104 3.23153 2.34891 3.99668 2.50773 5.10837L3.12695 9.4429C3.1284 9.45309 3.12984 9.46316 3.13127 9.47312C3.15619 9.6472 3.1761 9.7863 3.18016 9.92916C3.1815 9.97645 3.1815 10.0238 3.18016 10.071C3.1761 10.2139 3.15619 10.353 3.13127 10.5271C3.12984 10.537 3.1284 10.5471 3.12695 10.5573L2.53702 14.6868C2.37051 15.8524 2.2563 16.6609 2.2452 17.2586C2.23405 17.8581 2.33421 18.0751 2.43292 18.1856C2.5373 18.3024 2.67493 18.4014 2.81885 18.4632C2.95691 18.5225 3.1926 18.5482 3.74792 18.3514C4.30337 18.1545 5.02267 17.7947 6.06101 17.2732C7.30615 16.6478 8.57919 15.9884 9.65949 15.3882C11.1949 14.5352 13.3976 13.2795 15.3905 12.1364C16.3377 11.5931 16.99 11.2175 17.4334 10.8845C17.8744 10.5533 17.9831 10.3537 18.0138 10.2101Z" fill="#F0F4F8"/>
<path fill-rule="evenodd" clip-rule="evenodd" d="M9.7002 10.0002C9.7002 10.3868 9.38679 10.7002 9.0002 10.7002L3.0002 10.7002C2.6136 10.7002 2.3002 10.3868 2.3002 10.0002C2.3002 9.6136 2.6136 9.3002 3.0002 9.3002L9.0002 9.3002C9.38679 9.3002 9.7002 9.6136 9.7002 10.0002Z" fill="#F0F4F8"/>
</svg>
